<mxfile host="drawio-plugin" modified="2021-12-01T19:13:39.026Z" agent="5.0 (Macintosh; Intel Mac OS X 11_6_1) AppleWebKit/537.36 (KHTML, like Gecko) Chrome/89.0.4389.114 Safari/537.36" etag="muL-kexVSTiPVQUMO9gn" version="14.7.4" type="embed" pages="2"><diagram id="RVgleWnAx9tZy9t597a6" name="Authentication"><mxGraphModel dx="1598" dy="1081" grid="1" gridSize="10" guides="1" tooltips="1" connect="1" arrows="1" fold="1" page="1" pageScale="1" pageWidth="850" pageHeight="1100" math="0" shadow="0"><root><mxCell id="0"/><mxCell id="1" parent="0"/><mxCell id="825go5aphxIEcggLgjr9-1" value="" style="rounded=0;whiteSpace=wrap;html=1;fontSize=13;" parent="1" vertex="1"><mxGeometry x="10" y="210" width="810" height="550" as="geometry"/></mxCell><mxCell id="825go5aphxIEcggLgjr9-2" value="MyId" style="shape=umlLifeline;perimeter=lifelinePerimeter;whiteSpace=wrap;html=1;container=1;collapsible=0;recursiveResize=0;outlineConnect=0;fontSize=13;" parent="1" vertex="1"><mxGeometry x="200" y="240" width="120" height="480" as="geometry"/></mxCell><mxCell id="825go5aphxIEcggLgjr9-3" value="Hub Services" style="shape=umlLifeline;perimeter=lifelinePerimeter;whiteSpace=wrap;html=1;container=1;collapsible=0;recursiveResize=0;outlineConnect=0;fontSize=13;" parent="1" vertex="1"><mxGeometry x="360" y="240" width="120" height="480" as="geometry"/></mxCell><mxCell id="825go5aphxIEcggLgjr9-4" value="" style="html=1;points=[];perimeter=orthogonalPerimeter;fontSize=13;" parent="825go5aphxIEcggLgjr9-3" vertex="1"><mxGeometry x="55" y="200" width="10" height="200" as="geometry"/></mxCell><mxCell id="825go5aphxIEcggLgjr9-5" value="Service Now" style="shape=umlLifeline;perimeter=lifelinePerimeter;whiteSpace=wrap;html=1;container=1;collapsible=0;recursiveResize=0;outlineConnect=0;fontSize=13;" parent="1" vertex="1"><mxGeometry x="520" y="240" width="120" height="480" as="geometry"/></mxCell><mxCell id="825go5aphxIEcggLgjr9-6" value="Firebase" style="shape=umlLifeline;perimeter=lifelinePerimeter;whiteSpace=wrap;html=1;container=1;collapsible=0;recursiveResize=0;outlineConnect=0;fontSize=13;" parent="1" vertex="1"><mxGeometry x="680" y="240" width="120" height="480" as="geometry"/></mxCell><mxCell id="825go5aphxIEcggLgjr9-7" value="SignIn Tap" style="text;html=1;strokeColor=none;fillColor=none;align=center;verticalAlign=middle;whiteSpace=wrap;rounded=0;fontSize=13;" parent="1" vertex="1"><mxGeometry x="10" y="310" width="80" height="20" as="geometry"/></mxCell><mxCell id="825go5aphxIEcggLgjr9-8" value="" style="html=1;points=[];perimeter=orthogonalPerimeter;fontSize=13;" parent="1" vertex="1"><mxGeometry x="255" y="350" width="10" height="80" as="geometry"/></mxCell><mxCell id="825go5aphxIEcggLgjr9-9" value="Load Webview" style="html=1;verticalAlign=bottom;endArrow=block;entryX=0;entryY=0.125;entryDx=0;entryDy=0;entryPerimeter=0;fontSize=13;" parent="1" target="825go5aphxIEcggLgjr9-8" edge="1"><mxGeometry width="80" relative="1" as="geometry"><mxPoint x="105" y="360" as="sourcePoint"/><mxPoint x="250" y="360" as="targetPoint"/></mxGeometry></mxCell><mxCell id="825go5aphxIEcggLgjr9-10" value="accessToken" style="html=1;verticalAlign=bottom;endArrow=block;exitX=0;exitY=0.863;exitDx=0;exitDy=0;exitPerimeter=0;fontSize=13;entryX=1;entryY=0.294;entryDx=0;entryDy=0;entryPerimeter=0;" parent="1" source="825go5aphxIEcggLgjr9-8" target="825go5aphxIEcggLgjr9-20" edge="1"><mxGeometry width="80" relative="1" as="geometry"><mxPoint x="250" y="420" as="sourcePoint"/><mxPoint x="120" y="421" as="targetPoint"/><Array as="points"/></mxGeometry></mxCell><mxCell id="825go5aphxIEcggLgjr9-11" value="/authenticate/myid" style="html=1;verticalAlign=bottom;endArrow=block;entryX=0;entryY=0.095;entryDx=0;entryDy=0;entryPerimeter=0;fontSize=13;exitX=1.1;exitY=0.412;exitDx=0;exitDy=0;exitPerimeter=0;" parent="1" source="825go5aphxIEcggLgjr9-20" target="825go5aphxIEcggLgjr9-4" edge="1"><mxGeometry x="0.4516" width="80" relative="1" as="geometry"><mxPoint x="130" y="459" as="sourcePoint"/><mxPoint x="185" y="460" as="targetPoint"/><mxPoint as="offset"/></mxGeometry></mxCell><mxCell id="825go5aphxIEcggLgjr9-12" value="authenticate" style="html=1;verticalAlign=bottom;endArrow=block;fontSize=13;exitX=1.1;exitY=0.15;exitDx=0;exitDy=0;exitPerimeter=0;entryX=0.1;entryY=0.113;entryDx=0;entryDy=0;entryPerimeter=0;" parent="1" source="825go5aphxIEcggLgjr9-4" target="825go5aphxIEcggLgjr9-13" edge="1"><mxGeometry width="80" relative="1" as="geometry"><mxPoint x="430" y="470" as="sourcePoint"/><mxPoint x="550" y="470" as="targetPoint"/></mxGeometry></mxCell><mxCell id="825go5aphxIEcggLgjr9-13" value="" style="html=1;points=[];perimeter=orthogonalPerimeter;fontSize=13;" parent="1" vertex="1"><mxGeometry x="575" y="460" width="10" height="80" as="geometry"/></mxCell><mxCell id="825go5aphxIEcggLgjr9-14" value="tokens" style="html=1;verticalAlign=bottom;endArrow=block;exitX=0;exitY=0.863;exitDx=0;exitDy=0;exitPerimeter=0;entryX=1;entryY=0.225;entryDx=0;entryDy=0;entryPerimeter=0;fontSize=13;" parent="1" edge="1"><mxGeometry width="80" relative="1" as="geometry"><mxPoint x="575" y="530.04" as="sourcePoint"/><mxPoint x="425" y="530" as="targetPoint"/><Array as="points"/></mxGeometry></mxCell><mxCell id="825go5aphxIEcggLgjr9-15" value="generate custom JWT" style="html=1;verticalAlign=bottom;endArrow=block;entryX=0;entryY=0.095;entryDx=0;entryDy=0;entryPerimeter=0;exitX=1;exitY=0.318;exitDx=0;exitDy=0;exitPerimeter=0;fontSize=13;" parent="1" edge="1"><mxGeometry x="0.4516" width="80" relative="1" as="geometry"><mxPoint x="425" y="570.9200000000001" as="sourcePoint"/><mxPoint x="735" y="570" as="targetPoint"/><mxPoint as="offset"/></mxGeometry></mxCell><mxCell id="825go5aphxIEcggLgjr9-16" value="" style="html=1;points=[];perimeter=orthogonalPerimeter;fontSize=13;" parent="1" vertex="1"><mxGeometry x="735" y="560" width="10" height="80" as="geometry"/></mxCell><mxCell id="825go5aphxIEcggLgjr9-17" value="custom JWT" style="html=1;verticalAlign=bottom;endArrow=block;exitX=0;exitY=0.863;exitDx=0;exitDy=0;exitPerimeter=0;fontSize=13;entryX=0.9;entryY=0.9;entryDx=0;entryDy=0;entryPerimeter=0;" parent="1" edge="1"><mxGeometry width="80" relative="1" as="geometry"><mxPoint x="735" y="615.04" as="sourcePoint"/><mxPoint x="424" y="615" as="targetPoint"/><Array as="points"/></mxGeometry></mxCell><mxCell id="825go5aphxIEcggLgjr9-18" value="JWTs and Keys" style="html=1;verticalAlign=bottom;endArrow=block;exitX=0;exitY=0.863;exitDx=0;exitDy=0;exitPerimeter=0;fontSize=13;entryX=0.9;entryY=0.9;entryDx=0;entryDy=0;entryPerimeter=0;" parent="1" edge="1"><mxGeometry width="80" relative="1" as="geometry"><mxPoint x="414" y="630.04" as="sourcePoint"/><mxPoint x="103" y="630" as="targetPoint"/><Array as="points"/></mxGeometry></mxCell><mxCell id="825go5aphxIEcggLgjr9-19" value="App" style="shape=umlLifeline;perimeter=lifelinePerimeter;whiteSpace=wrap;html=1;container=1;collapsible=0;recursiveResize=0;outlineConnect=0;fontSize=13;" parent="1" vertex="1"><mxGeometry x="40" y="240" width="120" height="480" as="geometry"/></mxCell><mxCell id="825go5aphxIEcggLgjr9-20" value="" style="html=1;points=[];perimeter=orthogonalPerimeter;fontSize=13;" parent="1" vertex="1"><mxGeometry x="95" y="320" width="10" height="340" as="geometry"/></mxCell></root></mxGraphModel></diagram><diagram id="NWj-x-bCT90mlYScNHjG" name="Initial Navigation"><mxGraphModel dx="1598" dy="1081" grid="1" gridSize="10" guides="1" tooltips="1" connect="1" arrows="1" fold="1" page="1" pageScale="1" pageWidth="850" pageHeight="1100" math="0" shadow="0"><root><mxCell id="HugWZl3rQmSyiL4XXhD_-0"/><mxCell id="HugWZl3rQmSyiL4XXhD_-1" parent="HugWZl3rQmSyiL4XXhD_-0"/><mxCell id="HugWZl3rQmSyiL4XXhD_-2" value="" style="rounded=0;whiteSpace=wrap;html=1;" parent="HugWZl3rQmSyiL4XXhD_-1" vertex="1"><mxGeometry x="130" y="380" width="1300" height="530" as="geometry"/></mxCell><mxCell id="HugWZl3rQmSyiL4XXhD_-3" value="" style="strokeWidth=2;html=1;shape=mxgraph.flowchart.start_2;whiteSpace=wrap;" parent="HugWZl3rQmSyiL4XXhD_-1" vertex="1"><mxGeometry x="150" y="410" width="40" height="40" as="geometry"/></mxCell><mxCell id="HugWZl3rQmSyiL4XXhD_-4" value="" style="endArrow=classic;html=1;" parent="HugWZl3rQmSyiL4XXhD_-1" edge="1"><mxGeometry width="50" height="50" relative="1" as="geometry"><mxPoint x="190" y="430" as="sourcePoint"/><mxPoint x="230" y="430" as="targetPoint"/></mxGeometry></mxCell><mxCell id="HugWZl3rQmSyiL4XXhD_-5" value="Open CastLife" style="rounded=1;whiteSpace=wrap;html=1;" parent="HugWZl3rQmSyiL4XXhD_-1" vertex="1"><mxGeometry x="230" y="410" width="120" height="40" as="geometry"/></mxCell><mxCell id="HugWZl3rQmSyiL4XXhD_-6" value="Show PlaceholderApp" style="rounded=1;whiteSpace=wrap;html=1;" parent="HugWZl3rQmSyiL4XXhD_-1" vertex="1"><mxGeometry x="390" y="410" width="120" height="40" as="geometry"/></mxCell><mxCell id="HugWZl3rQmSyiL4XXhD_-7" value="" style="endArrow=classic;html=1;" parent="HugWZl3rQmSyiL4XXhD_-1" edge="1"><mxGeometry width="50" height="50" relative="1" as="geometry"><mxPoint x="350" y="429.5" as="sourcePoint"/><mxPoint x="390" y="429.5" as="targetPoint"/></mxGeometry></mxCell><mxCell id="HugWZl3rQmSyiL4XXhD_-8" value="bootstrap" style="rounded=1;whiteSpace=wrap;html=1;" parent="HugWZl3rQmSyiL4XXhD_-1" vertex="1"><mxGeometry x="550" y="410" width="120" height="40" as="geometry"/></mxCell><mxCell id="HugWZl3rQmSyiL4XXhD_-9" value="" style="endArrow=classic;html=1;" parent="HugWZl3rQmSyiL4XXhD_-1" edge="1"><mxGeometry width="50" height="50" relative="1" as="geometry"><mxPoint x="510" y="429.5" as="sourcePoint"/><mxPoint x="550" y="429.5" as="targetPoint"/></mxGeometry></mxCell><mxCell id="HugWZl3rQmSyiL4XXhD_-10" value="Start App&lt;br&gt;InitializationPage" style="rounded=1;whiteSpace=wrap;html=1;" parent="HugWZl3rQmSyiL4XXhD_-1" vertex="1"><mxGeometry x="710" y="410" width="120" height="40" as="geometry"/></mxCell><mxCell id="HugWZl3rQmSyiL4XXhD_-11" value="" style="endArrow=classic;html=1;" parent="HugWZl3rQmSyiL4XXhD_-1" edge="1"><mxGeometry width="50" height="50" relative="1" as="geometry"><mxPoint x="670" y="429.5" as="sourcePoint"/><mxPoint x="710" y="429.5" as="targetPoint"/></mxGeometry></mxCell><mxCell id="HugWZl3rQmSyiL4XXhD_-12" value="refreshJwt &lt;br&gt;validation" style="rhombus;whiteSpace=wrap;html=1;" parent="HugWZl3rQmSyiL4XXhD_-1" vertex="1"><mxGeometry x="870" y="380" width="100" height="100" as="geometry"/></mxCell><mxCell id="HugWZl3rQmSyiL4XXhD_-13" value="" style="endArrow=classic;html=1;" parent="HugWZl3rQmSyiL4XXhD_-1" edge="1"><mxGeometry width="50" height="50" relative="1" as="geometry"><mxPoint x="830" y="429.5" as="sourcePoint"/><mxPoint x="870" y="429.5" as="targetPoint"/></mxGeometry></mxCell><mxCell id="HugWZl3rQmSyiL4XXhD_-14" value="[Invalid refreshJwt]" style="html=1;verticalAlign=bottom;endArrow=block;" parent="HugWZl3rQmSyiL4XXhD_-1" edge="1"><mxGeometry width="80" relative="1" as="geometry"><mxPoint x="970" y="429.5" as="sourcePoint"/><mxPoint x="1110" y="430" as="targetPoint"/></mxGeometry></mxCell><mxCell id="HugWZl3rQmSyiL4XXhD_-15" value="Navigate to LoginPage" style="rounded=1;whiteSpace=wrap;html=1;" parent="HugWZl3rQmSyiL4XXhD_-1" vertex="1"><mxGeometry x="1110" y="410" width="120" height="40" as="geometry"/></mxCell><mxCell id="HugWZl3rQmSyiL4XXhD_-16" value="[valid refreshJwt]" style="html=1;verticalAlign=bottom;endArrow=block;" parent="HugWZl3rQmSyiL4XXhD_-1" edge="1"><mxGeometry width="80" relative="1" as="geometry"><mxPoint x="919.5" y="480" as="sourcePoint"/><mxPoint x="919.5" y="630" as="targetPoint"/></mxGeometry></mxCell><mxCell id="HugWZl3rQmSyiL4XXhD_-17" value="accessJwt&lt;br&gt;validation" style="rhombus;whiteSpace=wrap;html=1;" parent="HugWZl3rQmSyiL4XXhD_-1" vertex="1"><mxGeometry x="870" y="630" width="100" height="100" as="geometry"/></mxCell><mxCell id="HugWZl3rQmSyiL4XXhD_-18" value="[Invalid refreshJwt]" style="html=1;verticalAlign=bottom;endArrow=block;" parent="HugWZl3rQmSyiL4XXhD_-1" edge="1"><mxGeometry width="80" relative="1" as="geometry"><mxPoint x="970" y="679.5" as="sourcePoint"/><mxPoint x="1110" y="680" as="targetPoint"/></mxGeometry></mxCell><mxCell id="HugWZl3rQmSyiL4XXhD_-19" value="refreshToken" style="rounded=1;whiteSpace=wrap;html=1;" parent="HugWZl3rQmSyiL4XXhD_-1" vertex="1"><mxGeometry x="1110" y="660" width="120" height="40" as="geometry"/></mxCell><mxCell id="HugWZl3rQmSyiL4XXhD_-20" value="" style="endArrow=classic;html=1;" parent="HugWZl3rQmSyiL4XXhD_-1" edge="1"><mxGeometry width="50" height="50" relative="1" as="geometry"><mxPoint x="1230" y="680" as="sourcePoint"/><mxPoint x="920" y="590" as="targetPoint"/><Array as="points"><mxPoint x="1310" y="680"/><mxPoint x="1310" y="590"/></Array></mxGeometry></mxCell><mxCell id="HugWZl3rQmSyiL4XXhD_-21" value="[valid accessJwt]" style="html=1;verticalAlign=bottom;endArrow=block;" parent="HugWZl3rQmSyiL4XXhD_-1" edge="1"><mxGeometry width="80" relative="1" as="geometry"><mxPoint x="919.5" y="730" as="sourcePoint"/><mxPoint x="919" y="850" as="targetPoint"/></mxGeometry></mxCell><mxCell id="HugWZl3rQmSyiL4XXhD_-22" value="Navigate to HomePage" style="rounded=1;whiteSpace=wrap;html=1;" parent="HugWZl3rQmSyiL4XXhD_-1" vertex="1"><mxGeometry x="860" y="850" width="120" height="40" as="geometry"/></mxCell><mxCell id="HugWZl3rQmSyiL4XXhD_-23" value="" style="endArrow=classic;html=1;rounded=0;" parent="HugWZl3rQmSyiL4XXhD_-1" edge="1"><mxGeometry width="50" height="50" relative="1" as="geometry"><mxPoint x="1200" y="700" as="sourcePoint"/><mxPoint x="1300" y="790" as="targetPoint"/><Array as="points"><mxPoint x="1240" y="750"/><mxPoint x="1250" y="730"/></Array></mxGeometry></mxCell><mxCell id="HugWZl3rQmSyiL4XXhD_-24" value="Navigate to Logout" style="rounded=1;whiteSpace=wrap;html=1;" parent="HugWZl3rQmSyiL4XXhD_-1" vertex="1"><mxGeometry x="1300" y="770" width="120" height="40" as="geometry"/></mxCell></root></mxGraphModel></diagram></mxfile>